<svg height="490pt" viewBox="0 0 490.66667 490" width="490pt" xmlns="http://www.w3.org/2000/svg"><path d="m138.667969 160.332031-21.335938 21.335938-21.332031-21.335938zm0 0" fill="#b0bac6"/><path d="m149.332031 224.332031c0 17.675781-14.324219 32-32 32-17.671875 0-32-14.324219-32-32v-32h64zm0 0" fill="#f67483"/><g fill="#eaae5a"><path d="m490.667969 117.667969c0 64.851562-19.09375 106.664062-42.667969 106.664062l-1.28125.320313c-4.746094-18.992188-21.808594-32.316406-41.386719-32.320313 0-47.144531 38.1875-74.664062 85.335938-74.664062zm0 0"/><path d="m373.332031 447.691406-38.078125 38.082032c-7 6.933593-18.28125 6.933593-25.28125 0l-38.078125-38.082032c-6.933593-7-6.933593-18.277344 0-25.277344l16.425781-16.425781v-.320312h43.414063zm0 0"/><path d="m22.613281 234.679688c4.746094 18.992187 21.808594 32.316406 41.386719 32.320312h21.332031v74.667969h-64c-11.765625-.035157-21.2968748-9.566407-21.332031-21.335938v-64c.0351562-11.765625 9.566406-21.296875 21.332031-21.332031zm0 0"/><path d="m192 .332031-21.332031 74.667969h-85.335938v-10.667969c0-35.34375 28.65625-64 64-64zm0 0"/></g><path d="m117.332031 181.667969 21.335938-21.335938h-42.667969zm-64-32v-53.335938c.035157-11.765625 9.566407-21.296875 21.335938-21.332031h128v-10.667969c0-35.34375 28.652343-64 64-64h42.664062l-21.332031 74.667969v160h-128c-7.09375 0-13.726562 3.515625-17.707031 9.386719 4.5625-5.6875 7.046875-12.761719 7.039062-20.054688v-32h-64v32c-.011719 13.589844 8.558594 25.703125 21.375 30.214844 12.816407 4.511719 27.082031.4375 35.585938-10.160156-2.386719 3.523437-3.652344 7.6875-3.625 11.945312v10.667969h-74.667969c-19.578125-.003906-36.640625-13.328125-41.386719-32.320312-.859375-3.382813-1.289062-6.859376-1.28125-10.347657v-42.664062c0-17.675781 14.328125-32 32-32zm0 0" fill="#f6cd85"/><path d="m288 235v-42.667969h117.332031c19.578125.003907 36.640625 13.328125 41.386719 32.320313.859375 3.382812 1.289062 6.859375 1.28125 10.347656v138.667969l42.667969 42.664062-59.519531 59.519531c-4.015626 3.992188-9.457032 6.226563-15.117188 6.207032-5.660156-.023438-11.082031-2.292969-15.070312-6.3125l-27.628907-28.054688-41.597656-42.023437h-203.734375c-23.5625 0-42.667969-19.105469-42.667969-42.667969v-96h53.335938v-10.667969c-.027344-4.257812 1.238281-8.421875 3.625-11.945312 3.980469-5.871094 10.613281-9.386719 17.707031-9.386719zm0 0" fill="#f6cd85"/><path d="m288 352.332031h-128c-17.671875 0-32-14.324219-32-32v-64c-.035156-6.414062 1.882812-12.6875 5.503906-17.984375 5.960938-8.773437 15.886719-14.023437 26.496094-14.015625h138.667969v21.335938h-138.667969c-3.558594 0-6.890625 1.765625-8.886719 4.714843-1.1875 1.753907-1.808593 3.832032-1.78125 5.949219v64c0 5.890625 4.777344 10.667969 10.667969 10.667969h128zm0 0" fill="#eaae5a"/><path d="m117.332031 192.332031c-2.828125 0-5.539062-1.125-7.539062-3.125l-21.335938-21.332031c-3.046875-3.050781-3.960937-7.636719-2.308593-11.625 1.648437-3.984375 5.539062-6.582031 9.851562-6.582031h42.667969c4.3125 0 8.199219 2.597656 9.851562 6.582031 1.648438 3.988281.738281 8.574219-2.3125 11.625l-21.332031 21.332031c-2 2-4.714844 3.125-7.542969 3.125zm0 0" fill="#ad8240"/><path d="m213.332031 139h-21.332031c0-5.890625-4.777344-10.667969-10.667969-10.667969s-10.664062 4.777344-10.664062 10.667969h-21.335938c0-17.671875 14.328125-32 32-32 17.675781 0 32 14.328125 32 32zm0 0" fill="#c3924a"/><path d="m128 139h-21.332031c0-5.890625-4.777344-10.667969-10.667969-10.667969s-10.667969 4.777344-10.667969 10.667969h-21.332031c0-17.671875 14.328125-32 32-32s32 14.328125 32 32zm0 0" fill="#c3924a"/><path d="m245.332031 75h-21.332031c0-29.867188 18.742188-53.332031 42.667969-53.332031v21.332031c-11.5625 0-21.335938 14.65625-21.335938 32zm0 0" fill="#eaae5a"/><path d="m128 459c-47.050781 0-85.332031-33.503906-85.332031-74.667969h21.332031c0 29.410157 28.703125 53.335938 64 53.335938zm0 0" fill="#eaae5a"/><path d="m426.667969 107h-21.335938c0-24.320312 32.109375-42.667969 74.667969-42.667969v21.335938c-32.554688 0-53.332031 12.640625-53.332031 21.332031zm0 0" fill="#eaae5a"/></svg>